<?xml version="1.0" encoding="utf-8"?>
<!-- Generator: Adobe Illustrator 14.0.0, SVG Export Plug-In . SVG Version: 6.00 Build 43363)  -->
<!DOCTYPE svg PUBLIC "-//W3C//DTD SVG 1.1//EN" "http://www.w3.org/Graphics/SVG/1.1/DTD/svg11.dtd">
<svg version="1.1" id="Layer_1" xmlns="http://www.w3.org/2000/svg" xmlns:xlink="http://www.w3.org/1999/xlink" x="0px" y="0px"
	 width="515px" height="460px" viewBox="-1.5 -3 515 460" enable-background="new -1.5 -3 515 460" xml:space="preserve">
<g>
	<path fill="#ED171F" d="M470.151,453.06H42.112C19.36,452.988,1,434.556,1,411.804c0-7.2,1.872-14.328,5.472-20.592L220.456,20.628
		c15.912-27.504,55.439-27.504,71.352,0l213.984,370.584c3.672,6.264,5.544,13.319,5.544,20.592
		C511.336,434.556,492.832,453.06,470.151,453.06L470.151,453.06z"/>
	<polygon fill="#FEB82F" points="256.168,53.892 53.2,405.468 459.136,405.468 	"/>
	<path d="M128.439,378.252c1.656-0.288,3.313-1.009,4.681-2.088c7.2-5.904,12.888-13.393,16.632-22.032
		c0.576-1.296,1.512-2.376,2.664-3.168c1.439-0.937,3.096-1.44,4.752-1.44c1.296-0.072,2.592,0.36,3.384,1.152
		c0.505,0.359,1.009,0.792,1.584,1.296c2.16,1.872,4.536,3.456,7.056,4.824l2.881,1.584l2.664,1.151
		c0.647,0.36,1.152,0.792,1.584,1.225c0.576,0.647,0.863,1.439,0.791,2.304c0,0.936-0.144,1.944-0.287,2.808
		c-0.072,0.217-0.072,0.36-0.072,0.576c0,0.792,0.359,1.584,1.008,2.088l4.248,3.456l0.721,0.072c1.728,0,3.168-1.368,3.239-3.096
		l0.144-4.752l-0.287-9.937l-0.217-10.728l0.145-9.36c0-0.647-0.072-1.296-0.072-2.016c0-2.305,0.217-4.752,0.576-6.984
		c0.504-3.528,0.792-7.056,0.792-10.656c0-2.376-0.144-4.823-0.432-7.199l-0.792-7.776l-0.432-6.479l0.144-7.128l-0.288-8.208
		l0.145-17.137l0.936-20.808c-0.072-0.504-0.432-0.864-0.936-0.937c-1.009-0.144-1.944-0.432-2.809-1.008
		c-1.08-0.647-2.16-1.439-3.168-2.231c-1.08-0.864-1.656-2.232-1.656-3.601c0-0.863,0.217-1.728,0.721-2.447
		c1.08-1.729,2.52-3.169,4.248-4.177c0.863-0.504,1.655-1.151,2.303-1.872c2.521-2.664,4.104-5.976,4.537-9.144
		c0.72-4.824,1.295-9.648,1.8-15.048c0.216-1.872,0.647-3.744,1.44-5.544c0.647-1.584,1.799-2.88,3.239-3.816
		c0.937-0.647,1.944-1.224,2.952-1.8c9.936-5.832,20.88-9.72,32.4-11.521c2.231-0.359,4.535-0.216,6.552,0.36
		c3.672,1.08,7.272,2.088,10.944,3.313c1.799,0.575,3.744,0.936,5.688,1.079c2.376,0.217,4.68,0.505,7.056,1.009
		c0.576,0.144,1.152,0.216,1.8,0.216c0.792,0,1.656-0.145,2.376-0.36c1.368-0.432,2.521-1.296,2.376-1.08
		c0.864-1.296,1.656-2.592,2.593-4.319c1.224-2.089,2.088-4.32,2.52-6.696c0.144-1.008,0.36-2.016,0.648-3.096
		c0.359-1.656,0.863-3.313,1.439-4.969c0.576-1.728,1.584-3.239,2.952-4.319c1.296-1.152,2.808-2.088,4.392-2.952
		c1.225-0.648,2.664-0.864,4.032-0.648c2.592,0.36,5.185,1.008,7.704,1.8c2.304,0.792,4.464,2.017,6.336,3.601
		s3.096,3.744,3.672,6.048c0.504,2.088,0.504,4.176,0,6.264c-0.504,1.872-1.584,3.601-3.096,4.896
		c-0.792,0.647-1.368,1.439-1.656,2.448c-0.432,1.367-0.864,2.735-1.224,4.031c-0.937,3.528-2.88,6.696-5.688,9.072
		c-1.224,1.08-2.88,1.44-4.464,1.08c-0.144-0.072-0.288-0.072-0.432-0.072c-0.504,0-1.008,0.217-1.296,0.648
		s-0.504,0.936-0.504,1.439c0,0.36,0.071,0.721,0.216,1.009c0.359,0.863,0.647,1.728,0.863,2.664
		c0.505,2.304,0.721,4.68,0.576,7.056c-0.144,2.376-0.863,4.68-2.016,6.696l-5.4,9.216l-3.96,8.496
		c-0.432,0.647-0.647,1.439-0.72,3.384c0,1.152-0.072,2.231-0.072,2.736c0,0.72,0,1.296,0,1.943c0,3.24,0.145,6.336,0.576,9.576
		c0.288,2.448,0.504,4.896,0.576,7.344c0.144,3.168,0.288,6.265,0.504,9.648c0.144,2.304,0.576,4.68,1.296,6.983
		c0.216,0.792,0.648,1.584,1.296,2.232l5.904,5.544l3.744,3.313c6.408,2.88,12.527,6.407,18.216,10.584l4.68,3.384l2.448,2.664
		l4.464,3.743l3.672-1.439c8.208,5.256,16.704,10.08,25.776,14.472l2.016,1.008c2.952-2.664,6.265-4.896,9.864-6.695
		c1.944-0.937,4.032-1.729,6.192-2.305c4.176-1.08,8.567,0.288,11.376,3.528c2.088,2.376,3.96,5.04,5.399,7.848
		c0.648,1.225,1.584,2.232,2.809,3.024c1.008,0.576,1.943,1.368,2.735,2.232c2.017,2.088,3.744,4.319,5.185,6.84
		c1.439,2.376,3.096,4.68,4.896,6.84c0.937,1.08,1.8,2.231,2.664,3.456c0.864,1.296,1.729,2.735,2.376,4.248l2.664,5.832l0.72,1.224
		c0.36,0.216,0.648,0.432,0.792,0.648c1.152,1.871,2.305,3.672,3.528,5.688c1.8,2.952,3.313,6.192,4.32,9.36
		c1.368,3.888,2.592,7.92,3.672,12.096l0.72,2.88H91.936v-6.048L128.439,378.252z"/>
	<path fill="#FEB82F" d="M264.592,264.06c0.072-0.144,0.072-0.288,0.072-0.432c0-0.576-0.145-1.152-0.36-1.656l-1.008-2.952
		l-0.864-2.448c-1.152-3.527-2.231-7.271-3.24-12.096c-0.359-1.872-0.792-3.744-0.936-4.392c-0.288-1.368-0.433-2.736-0.433-4.104
		c-0.071-0.792-0.287-1.512-0.575-2.231l-1.439-2.376c-0.361-0.648-1.08-1.08-1.801-1.08c-0.576,0-1.08,0.216-1.512,0.647
		l-2.16,1.656l-1.8,2.016c-0.505,0.576-0.792,1.297-0.792,2.017l0,0c0,0.504,0.072,1.008,0.216,1.368
		c0.216,0.863,0.36,1.728,0.576,2.52c0.216,1.512,0.72,2.952,1.296,4.104c0.863,1.655,1.729,3.239,2.664,4.968
		c0.576,1.08,1.224,2.16,1.943,3.168c0.721,1.008,1.369,2.088,2.017,3.096c0.863,1.225,1.655,2.448,2.592,3.601
		c1.224,1.655,2.52,3.239,3.96,4.896c0.216,0.288,0.504,0.36,0.792,0.36c0.144,0,0.216,0,0.288-0.072
		C264.376,264.636,264.592,264.348,264.592,264.06z"/>
	<line fill="none" stroke="#000000" stroke-width="0.216" x1="264.16" y1="264.636" x2="264.592" y2="263.988"/>
	<path fill="#FEB82F" d="M220.313,200.196l0.936,1.152c0.288,0.145,0.288,0.432,0.072,0.648l-3.24,3.168l-4.032,4.464l-3.239,3.672
		c-0.505,1.44-1.152,2.808-1.801,4.176l-0.863,1.656l-1.152,1.728l-1.44,1.584l-2.448,2.593l-2.304,2.304
		c-0.36,0.216-0.792,0.36-1.151,0.36c-0.072,0-0.072,0-0.072,0c-1.008,0-1.872-0.864-1.872-1.872c0-0.145,0-0.36,0.071-0.504
		l0.217-0.937l0.576-2.448l1.08-3.239l1.151-2.809l1.009-1.8l1.655-3.313l1.008-2.376l0.648-1.8l0.937-2.088l1.295-2.808
		c0.072-0.288,0.36-0.433,0.576-0.504l4.824-0.937l3.096-0.359l3.528-0.072C219.736,199.836,220.096,199.98,220.313,200.196z"/>
	<path fill="#FEB82F" d="M253.145,372.203l-3.24,0.648l-4.752,0.937l-3.096,0.72l-4.896,0.792l-6.12,0.288l-5.256-0.145
		c-1.728-0.288-3.384-0.504-5.04-0.647c-1.08-0.072-2.232-0.288-3.313-0.648c-1.08-0.288-1.871-1.224-1.871-2.448l0,0v-0.071
		c0-0.504-0.072-1.009-0.217-1.584c-0.216-1.225-1.296-2.16-2.592-2.376c-1.368-0.145-2.736-0.504-4.032-0.937
		c-1.512-0.504-2.663-1.728-3.024-3.312c-0.432-1.584-0.647-3.24-0.647-4.896c0-1.728,0.216-3.456,0.72-5.184
		c0.072-0.36,0.433-0.648,0.793-0.648l1.728-0.072c0.144,0.072,0.288,0.072,0.432,0.072c0.72,0,1.368-0.504,1.44-1.008
		c0.432-2.016,0.792-3.888,1.296-6.192c0.864-3.888,1.368-7.848,1.512-11.808c0.072-2.448,0.433-4.824,1.009-7.2
		c0.863-3.384,2.088-6.624,3.743-9.72c0.648-1.152,1.224-2.376,1.728-3.672c0.648-1.729,0.937-3.601,0.937-5.473
		c0-0.647,0-1.296-0.071-1.943c-0.217-1.656-0.36-3.313-0.36-5.04c0-1.8,0.144-3.6,0.36-5.472l1.08-7.632l0.432-3.816l0.359-3.888
		c0.288-1.152,0.937-2.305,1.872-3.024c0.576-0.504,1.44-0.576,2.16-0.288l2.16,0.792l2.952,1.8
		c0.359,0.217,0.648,0.433,0.936,0.792c0.504,0.648,1.008,1.296,1.44,1.944l0.432,0.648l0.937,1.224l7.271,7.92l1.656,1.729
		l2.664,2.376l2.16,1.943l2.304,1.8l1.944,1.8c0.216,0.288,0.359,0.648,0.359,1.009c0.072,0.575,0,1.151-0.072,1.728
		c-0.215,2.448-0.719,4.968-1.728,7.632c-1.944,5.472-3.744,10.944-5.256,16.272c-1.296,4.896-2.16,9.863-2.448,14.832
		c-0.072,1.584-0.432,3.023-1.152,4.464c-0.863,1.872-1.943,3.6-3.096,5.256c-1.367,1.872-2.447,4.032-2.951,6.264l-0.36,1.296
		l6.407,3.816l3.313,0.792l1.656,0.504l0.432,0.288l8.855,6.048L253.145,372.203z"/>
	<path fill="#FEB82F" d="M348.111,321.371h-0.071c-4.248,3.96-7.704,8.568-10.44,13.536l-0.792,1.513l-0.936,1.871l-1.368,3.024
		l-1.872,3.816l-1.296,2.088l-2.736,4.176l-1.728,2.52l-1.944,2.809l-1.8,2.88l-3.24,4.608c-1.296,1.224-2.52,2.592-3.528,3.6
		c-1.367,1.512-3.239,2.52-5.328,2.88c-1.008,0.216-2.088,0.504-3.023,0.72c-2.232,0.648-4.608,0.937-6.984,0.864
		c-3.527-0.072-6.912-0.504-10.224-1.296c-3.24-0.792-6.408-1.368-9.504-1.8c-1.584-0.216-3.24-0.288-4.824-0.288
		c-2.808,0-5.472,0.288-8.063,0.936l-2.017,0.433l0.504-1.944c0-0.072,0-0.144,0-0.216c0-0.504-0.288-1.008-0.72-1.224l-5.976-3.385
		l-0.505-0.792l-2.664-4.248c-0.144-0.288-0.216-0.647-0.216-1.008c0-0.072,0-0.216,0-0.288c0.288-1.943,1.08-3.744,2.376-5.256
		c0.576-0.72,1.513-1.08,2.448-1.008c0.216,0.072,0.504,0.072,0.72,0.072c1.368,0,2.664-0.288,3.889-0.937
		c0.504-0.216,1.008-0.576,1.439-1.008c1.152-1.224,1.872-2.664,2.232-4.248l0.576-3.096l2.159-9.792l1.009-3.889l1.512-5.184
		l2.016-8.136l2.376-7.92l0.145-0.648l0.144-0.647l6.12-16.704l3.096,1.296l1.44,0.792l1.512,0.936l1.656,0.864l2.232,1.152
		l2.088,1.008l2.016,1.008l1.872,1.008l2.592,1.584l2.088,1.513l2.232,1.655l1.944,1.656l3.023,3.024l3.528,2.951
		c2.231,2.089,4.752,3.744,7.271,4.752c2.088,0.864,4.177,1.729,6.912,2.881c3.168,1.367,6.408,2.376,9.792,3.096l4.968,1.08
		L348.111,321.371L348.111,321.371z"/>
</g>
</svg>
